<svg id="Group_10" data-name="Group 10" xmlns="http://www.w3.org/2000/svg" xmlns:xlink="http://www.w3.org/1999/xlink" width="301.148" height="248.383" viewBox="0 0 301.148 248.383">
  <defs>
    <clipPath id="clip-path">
      <rect id="Rectangle_19" data-name="Rectangle 19" width="301.148" height="248.383" fill="none"/>
    </clipPath>
  </defs>
  <g id="Group_9" data-name="Group 9" transform="translate(0 0)" clip-path="url(#clip-path)">
    <path id="Path_32" data-name="Path 32" d="M67.861,42.955a16.439,16.439,0,0,0-6.287,8.724C55.708,71.185,51.484,91.086,47.3,110.99c-2.226,10.6-2.113,21.371-1.128,32.146a17.537,17.537,0,0,0,4.969,10.886c15.223,15.759,41.208,13.572,52.68-10.408,4.89-10.222,5.828-21.557,8.483-32.4,1.679-7.556,3.657-15.061,4.952-22.683,1.288-7.588,2.179-15.274,2.719-22.954.654-9.31-1.16-18.468-9.137-24.011-12.516-8.695-30.708-7.626-42.981,1.391m30.021,2.288c11.835,5.037,15.216,11.8,13.683,24.637-1.574,13.185-4.851,25.994-7.49,38.944-1.946,8.754-3.555,17.6-5.93,26.235-2.3,8.338-7.436,14.514-15.242,18.876-12.356,6.9-29.672-2.63-29.076-17.434.442-10.974.359-21.95,2.762-32.682C59.876,89.132,62.6,74.325,67.295,59.944c4.037-12.356,18.656-19.779,30.587-14.7" transform="translate(51.705 40.434)" fill="#f2dac2"/>
    <path id="Path_33" data-name="Path 33" d="M280.641,9.912c-4.542,4.894-9.16,9.72-14.114,14.2C256.166,33.49,241.688,49,228.29,52.983a107.091,107.091,0,0,1-18.267,3.668,60.263,60.263,0,0,1-7.981-.231c-17.821-1.829-35.2-6.3-52.772-9.549-24.285-4.486-47.826-5.306-69.409,8.979C66.333,64.805,54.9,76.031,47.25,90.558,41.518,101.44,39,113.482,36.193,125.31c-6.214,26.175-11.739,52.517-18.034,78.671-1.03,4.277-1.128,9.639-4.909,12.625a11.183,11.183,0,0,0-5.477.267,9.663,9.663,0,0,0-5.586,5.23,21.673,21.673,0,0,0-2.044,5.924,13.1,13.1,0,0,0,.09,4.384,4.319,4.319,0,0,0,.357,1.344,9.966,9.966,0,0,0,.991,2.132,14.979,14.979,0,0,0,5.631,4.9,105.255,105.255,0,0,0,11.126,5.048c2.356.942,4.9,2.16,7.447,2.459a9.313,9.313,0,0,0,7.116-1.8,7.225,7.225,0,0,0,1.386-1.218l-.045-.032c.092-.1.175-.233.265-.344a6.968,6.968,0,0,0,1.243-1.7,34.931,34.931,0,0,0,1.53-4.3c.442-1.282,1-2.57,1.318-3.89,1.248-5.159-2.433-9.291-6.492-12.452a18.469,18.469,0,0,1,.489-2.937c3.441-15.52,6.552-31.123,10.384-46.547l2.29-8.776c2.572,16.216,9.07,24.293,19.688,35.893,13.454,14.7,29.452,22.525,47.179,24.9a84.25,84.25,0,0,0,52.285-10.305c16.308-9.147,35.722-25.314,44.1-46.51,5.817-14.719,6.372-27.333,3.958-42.733a98.334,98.334,0,0,0-28.752-56.226c9.293,3.448,20.632,3.3,28.126,9.829,4.965,4.319,9.288,10.346,12.638,16,4.657,7.859,6.862,14.046,10.609,19.747a119.581,119.581,0,0,1,15.588,32.1c1.8,5.475,6.659,18.5,13.454,15.65,2.931-1.23,5.642-9.575,6.635-12.418,1.273-3.649,2.311-7.4,3.3-11.128,3.788-14.279,6.1-28.886,8.457-43.453,2.382-14.717,5.031-29.369,8.37-43.9,1.63-7.094,5.979-22.762,7.778-29.811a89.621,89.621,0,0,0,1.957-9.231c.587-4.033,1.519-9.438-2.79-11.822-6.528-3.612-13.313,4.841-17.205,9.036m-106.391,66.5a77.246,77.246,0,0,1,26.38,34.733c5.009,13.106,6.58,26.972,3.239,41.394-9.639,41.582-43.15,56.724-67.542,62.22-20.055,4.518-41.345.286-57.362-12.6q-2.233-1.794-4.334-3.822C63.156,187.236,55.314,174.081,52,158.065,49.309,145.1,48.73,132.74,51.952,119.6c4.17-17,13.424-30.362,25.426-42.133,0,0,25.981-24.154,59.877-17.547a92.532,92.532,0,0,1,37,16.49" transform="translate(0 0)" fill="#f2dac2"/>
    <path id="Path_34" data-name="Path 34" d="M76.87,30.536C58.951,35.984,54.991,54.629,51,70.6c-4.223,16.908-8.487,33.853-10.914,51.133a195.775,195.775,0,0,0-2.23,26.675c-.013,7.227,1.288,15.159,5.356,21.288,4.08,6.15,10.13,9.252,17.306,10.124a13.889,13.889,0,0,0,1.457.246c1.527.222,3.063.4,4.6.549,12.044,1.169,24.364.882,36.115-2.245a59.525,59.525,0,0,0,9.833-3.559c.16-.075.308-.164.459-.252.173-.064.348-.126.515-.205,11.061-5.3,20.67-11.367,27.72-21.572a114.273,114.273,0,0,0,10.092-16.872,77.415,77.415,0,0,0,6.167-23.742c2.916-26.966-9.1-56.769-32.712-71.308-14.2-8.742-31.17-15.409-47.892-10.324m35,12.8c6.5,3.275,12.409,6.881,17.59,12.021A70.8,70.8,0,0,1,141.592,71.4c5.114,9.284,7.842,20.982,7.983,31.537a76.616,76.616,0,0,1-3.939,24.528c-2.179,6.684-6.225,12.7-10,18.577a46.949,46.949,0,0,1-9.226,10.965c-4.969,4.129-10.906,7.1-16.705,9.889-10.732,4.937-22.655,6.231-34.364,5.9a94.427,94.427,0,0,1-10.976-.874c-2.672-.37-5.514-.5-8-1.587-12.905-5.646-10.346-25.178-9.3-36.233,1.48-15.695,4.719-31.144,8.4-46.453Q58.4,75.459,61.5,63.3c1.812-7.035,4.042-14.437,9.278-19.739C81.5,32.7,100.046,37.379,111.87,43.341" transform="translate(43.014 32.692)" fill="#f2dac2"/>
    <path id="Path_35" data-name="Path 35" d="M39.7,68.87a3.291,3.291,0,0,0,.126.555,1.58,1.58,0,0,0,.171.38,10.051,10.051,0,0,0,3.066,3.888,7.94,7.94,0,0,0,4.787,2.279c3.687.132,6.349-3.006,6.917-6.417a9.967,9.967,0,0,0-3.36-9.44,7.954,7.954,0,0,0-9.391-.164C39.4,61.908,39,65.849,39.7,68.87" transform="translate(44.765 66.467)" fill="#63a453"/>
    <path id="Path_36" data-name="Path 36" d="M50.124,48.153c-.76-.088-1.527-.207-2.288-.276-1.812-.164-3.382,1.427-4.166,2.754A15.193,15.193,0,0,0,42.59,53.41c-.009.026-.009.058-.017.085a7.83,7.83,0,0,0-.032,4.95,7.794,7.794,0,0,0,2.269,3.9A8.45,8.45,0,0,0,49.938,64a6,6,0,0,0,4.495-2.108,7.125,7.125,0,0,0,2.032-4.02,12.349,12.349,0,0,0-.335-5.864,5.336,5.336,0,0,0-3.521-3.339,12.174,12.174,0,0,0-2.484-.517" transform="translate(47.897 54.387)" fill="#63a453"/>
    <path id="Path_37" data-name="Path 37" d="M39.161,72.159a7.67,7.67,0,0,1,7.406-2.23c3.461,1.034,5.757,4.475,5.49,7.466-.182,2.029-1.523,3.394-3.185,4.537-1.346.925-2.986,2.051-4.843,2.106a6.626,6.626,0,0,1-5.5-3.01,7.525,7.525,0,0,1,.632-8.87" transform="translate(42.476 79.203)" fill="#63a453"/>
    <path id="Path_38" data-name="Path 38" d="M45.838,70.542c-2.925-.124-5.4,1.126-6.257,4.221-.867,3.115.192,6.441,3.437,7.558,4.1,1.414,8.823,1.747,13.059,2.766,4.514,1.083,9,2.329,13.386,3.85,6.084,2.106,15.263,5.377,17.192,12.367,1.117,4.057-.931,8.25-.641,12.369.282,4.012,2.423,7.626,5.136,10.5,5.272,5.576,13.119,7.93,20.583,8.38,7.212.434,16.235-.66,19.363-8.237,2.816-6.825,4.563-16.522.045-22.977-4.7-6.716-13.766-9.59-21.029-12.5-20.487-8.2-41.875-13.99-63.506-18.252a2.968,2.968,0,0,0-.767-.045M93.361,88.6c7.7,2.6,15.31,5.505,22.732,8.829,6.052,2.713,12.26,6.048,12.162,13.574a32.836,32.836,0,0,1-2.079,10.551c-1.346,3.576-4.548,4.811-8.118,5.244-6.246.758-13.091-.128-18.617-3.251a17.288,17.288,0,0,1-6.528-6.281c-2.151-3.7-.882-7.391-.472-11.335.628-6.063-1.914-11.232-6.648-14.988-5.706-4.527-12.905-6.924-19.788-9-4.311-1.3-8.684-2.388-13.084-3.339q-3.089-.667-6.193-1.239c-.009,0-1.9-.355-1.891-.323a.676.676,0,0,1,.551-.983A379.077,379.077,0,0,1,93.361,88.6" transform="translate(44.644 80.144)" fill="#c15325"/>
    <path id="Path_39" data-name="Path 39" d="M95.38,68.364Q72.244,64.08,49.111,59.8c-3.931-.7-7.069,1.389-7.693,5.4-.724,4.674,2.754,6.454,6.554,7.545,12.495,3.6,25.1,6.847,37.649,10.262,6.716,1.829,13.413,3.775,20.16,5.486,4.619,1.169,10.6,1.384,13.416-3.322,2.839-4.749-.359-10.352-4.86-12.582a29.856,29.856,0,0,0-7.94-2.19q-5.508-1.022-11.017-2.038M114.4,80.1c.989,2.472-1.491,3.58-3.589,3.593-2.279.011-4.685-.916-6.862-1.508l-7.528-2.049L66.7,72.049c-5.65-1.538-11.322-3.019-16.955-4.616-.568-.16-2.32-.338-2.675-.784a.851.851,0,0,1,.818-1.369l30.845,5.71c10.036,1.856,20.324,3.226,30.239,5.646,2.01.491,4.572,1.342,5.424,3.467" transform="translate(46.952 67.796)" fill="#c15325"/>
    <path id="Path_40" data-name="Path 40" d="M96.879,42.533c-5.7,8.043-9.468,22.1-.989,29.63,4.292,3.813,10.085,4.787,15.61,4.008,1.891-.265,5.958-1.382,7.24.767,1.948,3.268-6.541,2.064-7.539,1.927-6.748-.916-13.426-2.619-20.085-4.04q-10.1-2.157-20.207-4.317-9.581-2.048-19.166-4.085c-2.241-.476-4.544-1.028-6.161,1.064a11.31,11.31,0,0,0-1.536,4.3,2.75,2.75,0,0,0-.036,1.265c.31,4.732,6.966,5.251,10.538,6.144,6.926,1.728,13.847,3.474,20.749,5.287,13.96,3.672,27.831,7.671,41.488,12.36,10.824,3.717,24.281,7.285,33.714-1.6,8.472-7.975,8.474-23.106,4-33.031-4.937-10.94-15.9-18.76-26.348-24.016C117.8,32.992,104.3,32.057,96.879,42.533m42.548,9.679c8.445,6.953,13.834,16.812,12.068,28-.863,5.456-3.136,10.88-8.38,13.366-5.074,2.405-10.837,1.912-16.131.6-6.74-1.671-13.255-4.319-19.871-6.413-6.8-2.151-13.651-4.151-20.527-6.048-7.056-1.946-14.14-3.79-21.234-5.591Q60.028,74.774,54.7,73.449c-1.44-.359-2.9-.673-4.328-1.083-.2-.058-.414-.143-.626-.209.03-.115.06-.233.088-.352.446.094,1.038.171,1.087.182l4.091.869q7.572,1.612,15.144,3.232,15.762,3.368,31.531,6.725c5.176,1.092,11.9,3.123,17.171,1.745,4.23-1.107,7.206-5.676,5.071-9.829-2.277-4.437-7.327-4.935-11.745-4.313-5,.7-10.673.641-13.907-3.967-2.91-4.149-1.692-9.936-.058-14.338,1.852-4.986,4.738-9.75,10.06-11.459C119.2,37.139,131.4,45.6,139.427,52.212" transform="translate(49.94 39.104)" fill="#c15325"/>
    <path id="Path_41" data-name="Path 41" d="M50.749,79.854a2.673,2.673,0,0,0,1.527-1.8,3.127,3.127,0,0,0-.752-2.572,2.526,2.526,0,0,0-1.235-.784,72.991,72.991,0,0,0-6.909-2.766l-6.1-2.2c-2.151-.778-4.388-1.865-6.671-2.158A7,7,0,0,0,24.7,69.31a4.552,4.552,0,0,0-.391,5.652c2.158,3.54,7.233,4.621,11.141,4.986a106.767,106.767,0,0,0,13.469.147Z" transform="translate(26.714 76.689)" fill="#c15325"/>
    <path id="Path_42" data-name="Path 42" d="M54.99,69.567a3.025,3.025,0,0,0,1.722-2.029,3.551,3.551,0,0,0-.85-2.9,2.833,2.833,0,0,0-1.389-.884,82.5,82.5,0,0,0-7.787-3.119l-6.868-2.482c-2.422-.876-4.945-2.1-7.517-2.431a7.907,7.907,0,0,0-6.669,1.963,5.127,5.127,0,0,0-.438,6.37c2.429,3.988,8.148,5.206,12.55,5.618a120.037,120.037,0,0,0,15.176.164Z" transform="translate(27.608 63.221)" fill="#c15325"/>
    <path id="Path_43" data-name="Path 43" d="M55.985,57.782a2.735,2.735,0,0,0,1.562-1.841,3.223,3.223,0,0,0-.769-2.628,2.586,2.586,0,0,0-1.263-.8,74.544,74.544,0,0,0-7.058-2.826q-3.111-1.128-6.227-2.252c-2.2-.795-4.484-1.908-6.815-2.2a7.161,7.161,0,0,0-6.048,1.779,4.655,4.655,0,0,0-.4,5.776c2.2,3.615,7.387,4.719,11.38,5.093a108.587,108.587,0,0,0,13.76.15Z" transform="translate(31.996 51.307)" fill="#c15325"/>
  </g>
</svg>
