<svg id="Group_21" data-name="Group 21" xmlns="http://www.w3.org/2000/svg" xmlns:xlink="http://www.w3.org/1999/xlink" width="162.675" height="171.478" viewBox="0 0 162.675 171.478">
  <defs>
    <clipPath id="clip-path">
      <rect id="Rectangle_24" data-name="Rectangle 24" width="162.675" height="171.478" fill="none"/>
    </clipPath>
  </defs>
  <g id="Group_20" data-name="Group 20" clip-path="url(#clip-path)">
    <g id="Group_19" data-name="Group 19">
      <g id="Group_18" data-name="Group 18" clip-path="url(#clip-path)">
        <g id="Group_17" data-name="Group 17" opacity="0.28" style="mix-blend-mode: multiply;isolation: isolate">
          <g id="Group_16" data-name="Group 16">
            <g id="Group_15" data-name="Group 15" clip-path="url(#clip-path)">
              <path id="Path_72" data-name="Path 72" d="M57.064,3C96.2-8.49,142.247,14.162,157.031,52.171c10.9,28.028,5.335,60.923-10.913,86.23a78.134,78.134,0,0,1-17.53,19.854c-15.061,11.653-35.408,15.388-54.157,12.055s-35.919-13.256-49.9-26.182c-7.117-6.578-13.558-14.044-17.91-22.7-9.371-18.647-8.091-41.333-.543-60.79,5.116-13.185,12.845-25.107,21.7-36.2A69.07,69.07,0,0,1,57.064,3Z" transform="translate(0 0)" fill="#fdba41"/>
            </g>
          </g>
        </g>
      </g>
    </g>
  </g>
</svg>
