<svg id="Group_12" data-name="Group 12" xmlns="http://www.w3.org/2000/svg" xmlns:xlink="http://www.w3.org/1999/xlink" width="346.922" height="343.903" viewBox="0 0 346.922 343.903">
  <defs>
    <clipPath id="clip-path">
      <rect id="Rectangle_20" data-name="Rectangle 20" width="346.922" height="343.903" fill="none"/>
    </clipPath>
  </defs>
  <g id="Group_11" data-name="Group 11" clip-path="url(#clip-path)">
    <path id="Path_44" data-name="Path 44" d="M1.643,130.278c21.685,61.117,24.208,85.45,56.379,142.3a8.106,8.106,0,0,0,2.6,3.164,8.681,8.681,0,0,0,4.666.829,216.9,216.9,0,0,0,32.784-3.515c66.794-11.276,139.995-36.982,203.373-59.852,1.511-.544,3.133-1.177,3.945-2.5s.593-2.97.343-4.481c-10.758-65.537-18.474-89.473-40.646-152.4,0,0-24.3-6.058-150.4,32.919S1.643,130.278,1.643,130.278" transform="translate(1.916 67.325)" fill="#78a69d"/>
    <path id="Path_45" data-name="Path 45" d="M266.561,51.156a21.757,21.757,0,0,0-6.452.023c-3.163.285-6.314.7-9.452,1.17-5.168.77-10.254,1.694-15.311,2.948Q219.56,59.2,203.724,62.92c-19.534,4.619-39.1,9.123-58.561,14.011C126.2,81.7,107.325,86.84,88.727,92.782q-29.429,9.4-57.743,21.582-7.333,3.168-14.565,6.523A63.907,63.907,0,0,0,4.8,127.454c-1.854,1.4-4.228,3.277-4.73,5.608-.734,3.429,4.593,4.154,7.04,4.373,9.981.892,19.569-2.2,28.932-4.978q15.808-4.682,31.591-9.448,31.68-9.558,63.318-19.256,31.567-9.622,63.182-19.1c10.3-3.07,20.575-6.146,31-8.811,10.13-2.591,20.326-5.209,29.82-9.518,2.447-1.111,4.843-2.34,7.159-3.682,2.222-1.29,4.813-2.631,6.379-4.648,1.733-2.225,1.36-6.11-1.93-6.835" transform="translate(0 64.087)" fill="#eddac4"/>
    <path id="Path_46" data-name="Path 46" d="M12.6,92.191a5.633,5.633,0,0,0-1.846.084,9.175,9.175,0,0,0-2.078.824c-.182.086.136-.07-.108.045-.177.084-.348.183-.517.282a7.923,7.923,0,0,0-.961.66,4.863,4.863,0,0,0-1.08,1.184,4.388,4.388,0,0,0,.663,5.245A4.136,4.136,0,0,0,9.4,101.838a6.443,6.443,0,0,0,3.632-.989c1.879-1.1,3.463-3.009,3.211-5.2-.2-1.791-1.529-3.664-3.642-3.463" transform="translate(8.243 115.992)" fill="#eddac4"/>
    <path id="Path_47" data-name="Path 47" d="M252.718,62.493q-.011,7.169-.02,14.341-.026,17.083-.05,34.17-.03,20.647-.061,41.3-.027,17.9-.053,35.805-.011,5.912-.018,11.82c0,.481-.02.974-.04,1.468-10.3-15.231-21.388-29.98-31.568-45.288-5.128-7.709-9.668-15.748-14.953-23.362-5.453-7.863-11.376-15.42-17.311-22.962-6.077-7.723-12.267-15.409-17.7-23.559a1.335,1.335,0,0,0-2.416.7c.141,19.238-.156,38.473-.507,57.708-.353,19.355-.762,38.712-.86,58.072q-.068,13.922.129,27.841-7.026-11.594-14.847-22.739c-5.57-7.91-11.646-15.479-17.095-23.464-10.637-15.59-19.276-32.241-29.409-48.106a243.16,243.16,0,0,0-18.81-25.691c-.754-.9-2.48-.621-2.416.7.906,19.073,1.607,38.152,2.26,57.232.656,19.1,1.266,38.209,1.99,57.309q.537,14.179,1.191,28.354c-10.965-13.891-21.1-28.347-30.864-43.011-10.455-15.7-20.528-31.62-30.955-47.336-6-9.035-12.113-18-18.459-26.82-.946-1.315-3.163.007-2.212,1.33,11.184,15.545,21.63,31.539,32.025,47.56,10.239,15.784,20.452,31.593,31.354,46.982,6.238,8.807,12.708,17.467,19.5,25.9.742.924,2.48.6,2.416-.7-.906-19.073-1.607-38.152-2.26-57.232-.656-19.1-1.266-38.209-1.99-57.309q-.541-14.244-1.2-28.483c11.076,13.726,20.169,28.609,28.955,43.738,4.7,8.082,9.449,16.109,14.653,23.915,5.33,7.994,11.288,15.545,16.905,23.353q10.488,14.579,19.554,30.01a1.336,1.336,0,0,0,2.416-.7c-.383-19.393-.23-38.791.071-58.183.3-19.314.749-38.627.979-57.943q.17-14.05.129-28.1c9.555,13.69,20.724,26.346,30.441,39.932,5.406,7.56,10,15.549,15.056,23.31,5.353,8.211,11.026,16.231,16.711,24.241,6.531,9.2,13.107,18.375,19.337,27.76a1.336,1.336,0,0,0,2.416-.7q.011-7.169.02-14.341.027-17.083.05-34.17l.061-41.3q.026-17.9.053-35.805c.01-5.773.283-11.61.025-17.381,0-.079,0-.16,0-.239,0-1.6-2.621-1.518-2.623.072" transform="translate(11.31 77.111)" fill="#eddac4"/>
    <path id="Path_48" data-name="Path 48" d="M45.783,144.945a5.632,5.632,0,0,0-1.846.084,9.174,9.174,0,0,0-2.078.824c-.182.086.136-.07-.108.045-.177.084-.348.183-.52.282a8.1,8.1,0,0,0-.959.66,4.863,4.863,0,0,0-1.08,1.184,4.388,4.388,0,0,0,.663,5.245,4.13,4.13,0,0,0,2.727,1.324,6.443,6.443,0,0,0,3.632-.989c1.879-1.1,3.463-3.009,3.211-5.2-.2-1.791-1.529-3.664-3.642-3.463" transform="translate(58.767 182.395)" fill="#eddac4"/>
    <path id="Path_49" data-name="Path 49" d="M48.807,85.522a4.215,4.215,0,0,0-1.095-1.446,7.157,7.157,0,0,0-1.97-1.046c-.187-.081.146.054-.106-.052a5.359,5.359,0,0,0-.568-.2,6.956,6.956,0,0,0-1.193-.26,5.32,5.32,0,0,0-1.788.056A7.194,7.194,0,0,0,37.133,87.3a4.194,4.194,0,0,0,.149,3.289,4.906,4.906,0,0,0,2.987,2.186,7.162,7.162,0,0,0,7.02-1.507c1.7-1.6,2.876-4.174,1.519-5.746" transform="translate(56.136 103.805)" fill="#eddac4"/>
    <path id="Path_50" data-name="Path 50" d="M76.092,136.5a5.633,5.633,0,0,0-1.846.084,9.174,9.174,0,0,0-2.078.824c-.182.086.136-.07-.108.045-.177.084-.348.183-.52.282a8.1,8.1,0,0,0-.959.66,4.865,4.865,0,0,0-1.08,1.184,4.388,4.388,0,0,0,.663,5.245,4.13,4.13,0,0,0,2.727,1.324,6.443,6.443,0,0,0,3.632-.989c1.879-1.1,3.463-3.009,3.211-5.2-.2-1.791-1.529-3.664-3.642-3.463" transform="translate(104.91 171.76)" fill="#eddac4"/>
    <path id="Path_51" data-name="Path 51" d="M71.659,72.474a4.835,4.835,0,0,0-.911,1.5,7.818,7.818,0,0,0-.376,2.08c-.018.192.013-.145-.015.111-.02.185-.023.373-.025.56a6.8,6.8,0,0,0,.078,1.109,4.527,4.527,0,0,0,.479,1.486A4.992,4.992,0,0,0,75.94,81.6a4.075,4.075,0,0,0,2.638-1.446,5.493,5.493,0,0,0,1.057-3.395,5.6,5.6,0,0,0-2.931-5.31c-1.71-.8-4.094-.75-5.045,1.025" transform="translate(107.075 89.312)" fill="#eddac4"/>
    <path id="Path_52" data-name="Path 52" d="M110.524,123.37a5.633,5.633,0,0,0-1.846.084,9.173,9.173,0,0,0-2.078.824c-.182.088.136-.07-.108.045-.177.084-.348.183-.52.282a8.1,8.1,0,0,0-.959.66,4.864,4.864,0,0,0-1.08,1.184,4.388,4.388,0,0,0,.663,5.245,4.13,4.13,0,0,0,2.727,1.324,6.443,6.443,0,0,0,3.632-.989c1.879-1.1,3.463-3.009,3.211-5.2-.2-1.791-1.529-3.664-3.642-3.463" transform="translate(157.33 155.238)" fill="#eddac4"/>
    <path id="Path_53" data-name="Path 53" d="M108.859,59.89a4.106,4.106,0,0,0-1.566,0,6.39,6.39,0,0,0-1.725.723c-.151.077.111-.063-.091.041-.146.075-.288.165-.429.255a5.844,5.844,0,0,0-.782.608,3.993,3.993,0,0,0-.863,1.12,5.022,5.022,0,0,0,.822,5.2,3.792,3.792,0,0,0,2.381,1.423,4.562,4.562,0,0,0,3.042-.818,5.123,5.123,0,0,0,2.477-4.981c-.262-1.775-1.478-3.679-3.267-3.573" transform="translate(156.806 75.292)" fill="#eddac4"/>
    <path id="Path_54" data-name="Path 54" d="M80.8,38.4l50.756,6.155q25.487,3.093,50.973,6.182c9.52,1.156,25.033,2.444,34.552,3.6a8.185,8.185,0,0,0,3.64-.937,13.489,13.489,0,0,0,3.816-2.528c1.122-1.123,2.747-3.366.111-3.686-16.991-2.06-39.978-4.253-56.969-6.315s-33.982-4.12-50.973-6.182q-14.17-1.718-28.342-3.438a8.156,8.156,0,0,0-3.637.94,13.542,13.542,0,0,0-3.819,2.525c-1.12,1.123-2.744,3.366-.108,3.686" transform="translate(120.847 39.312)" fill="#78a69d"/>
    <path id="Path_55" data-name="Path 55" d="M106.556,35.8A17.73,17.73,0,0,0,99.7,27.531a20.452,20.452,0,0,0-10.387-3.4,15.209,15.209,0,0,0-10.564,3.749A12.922,12.922,0,0,0,77.076,29.7a18.752,18.752,0,0,0-6.631,10.519,27.188,27.188,0,0,0-.979,6.2,13.856,13.856,0,0,0,1.438,5.97c3.536,7.061,12.312,10.962,20.353,9.981a19.779,19.779,0,0,0,11.7-5.753A18.07,18.07,0,0,0,107.9,46.64,20.817,20.817,0,0,0,106.556,35.8" transform="translate(105.755 30.367)" fill="#eddac4"/>
    <path id="Path_56" data-name="Path 56" d="M100.87,10.026q-16.3,18.614-32.6,37.231-16.372,18.7-32.744,37.389c-6.114,6.984-15.548,18.68-21.663,25.664a7.038,7.038,0,0,0-1.1,3.4,12.05,12.05,0,0,0,.224,4.4c.409,1.5,1.551,3.989,3.244,2.055C27.14,107.7,41.374,90.523,52.288,78.061L85.032,40.67l18.207-20.789a7.064,7.064,0,0,0,1.1-3.4,12.052,12.052,0,0,0-.227-4.4c-.409-1.5-1.551-3.989-3.244-2.055" transform="translate(19.268 11.732)" fill="#78a69d"/>
    <path id="Path_57" data-name="Path 57" d="M83.83,19.329a9.812,9.812,0,0,0-.769-2.48,17.759,17.759,0,0,0-5.892-10.7c-.7-.623-1.327-1.312-2.038-1.924a17.979,17.979,0,0,0-2.8-2.006A16.252,16.252,0,0,0,66.579.207a23.939,23.939,0,0,0-12.36,1.748A20.891,20.891,0,0,0,44.82,9.6a14.626,14.626,0,0,0-2.449,10.858A17.376,17.376,0,0,0,47.943,29.9a23.946,23.946,0,0,0,22.783,4.813C77.418,32.6,85.043,26.8,83.83,19.329" transform="translate(64.146 0.001)" fill="#eddac4"/>
  </g>
</svg>
