<svg xmlns="http://www.w3.org/2000/svg" xmlns:xlink="http://www.w3.org/1999/xlink" width="360.685" height="344.194" viewBox="0 0 360.685 344.194">
  <defs>
    <clipPath id="clip-path">
      <rect id="Rectangle_16" data-name="Rectangle 16" width="138.146" height="360.963" fill="none"/>
    </clipPath>
  </defs>
  <g id="Group_4" data-name="Group 4" transform="translate(268.248) rotate(48)">
    <g id="Group_3" data-name="Group 3" clip-path="url(#clip-path)">
      <path id="Path_11" data-name="Path 11" d="M116.633,296.6a54.2,54.2,0,0,0-5.857-25.655c-2.034-4.113-3.709-8.1-3.763-12.869a40.585,40.585,0,0,1,2.23-12.423c2.6-8.4,6.256-16.4,6.988-25.361a48.572,48.572,0,0,0-16.8-40.257,37.688,37.688,0,0,0-7.463-4.818q7.314-36.528,14.63-73.059,3.752-18.743,7.506-37.487c.266-1.331.481-2.694.834-4,.072-.27.351-.774.4-1.068.505-.077.943-.146,1.808-.283a11.6,11.6,0,0,0,3.391-.86c2.086-1.029,3.105-3.128,3.554-5.5.541-2.86,1-5.745,1.439-8.625.907-5.914,1.668-11.853,2.5-17.779.423-3,.864-5.995,1.349-8.983.417-2.556,1.595-5.88.767-8.437-.608-1.879-2.5-3.207-4.03-4.114a35.675,35.675,0,0,0-7.291-3.154C113.669.214,107.668-.682,102.354.63a6.673,6.673,0,0,0-4.861,5.137l-1.367,5.077q-2.3,8.548-4.606,17.1-1.923,7.14-3.845,14.279a14.787,14.787,0,0,0-.773,4.658c.209,4.078,2.922,6.284,5.616,8.516l1.021.847Q89.676,75.473,85.811,94.7q-6.4,31.838-12.794,63.675-1.249,6.208-2.5,12.418c-13.3.754-26.065,9.037-33.431,21.184-4.2,6.928-6.129,14.572-6.684,22.818-.593,8.8.187,18.217-3.158,26.479-1.723,4.257-4.849,7.078-8.1,9.889a49.023,49.023,0,0,0-8.569,9.376A58.7,58.7,0,0,0,1.438,285C.31,292.71-.5,300.766.356,308.554a65.513,65.513,0,0,0,5.83,21.184,73.059,73.059,0,0,0,3.581,6.409,40.572,40.572,0,0,0,8.059,9,67.536,67.536,0,0,0,13.825,9.4c15.243,7.913,33.614,8.253,49.522,2.433a40.339,40.339,0,0,0,18.446-13.743,86.145,86.145,0,0,0,11.553-20.764,77.779,77.779,0,0,0,5.462-25.874" transform="translate(0 0)" fill="#5b7ebc"/>
      <path id="Path_12" data-name="Path 12" d="M67.841,142.255a23.094,23.094,0,0,0-4.975-4.561c-4.2-2.454-9.067-2.752-13.723-2.451-.169,0-.318.012-.414.021a3.711,3.711,0,0,0-.487.081c-7.87,1.131-13.971,9.4-15.763,18.349-2.07,10.334,3.325,20,11.15,23.8,8.337,4.053,18.608.536,24.54-7.76,5.961-8.337,6.405-20.009-.327-27.482" transform="translate(15.838 86.998)" fill="#fff"/>
      <path id="Path_13" data-name="Path 13" d="M66.9,5.831a.821.821,0,0,0-.006-.087,1.144,1.144,0,0,0-.022-.125c-.007-.023-.013-.044-.022-.066a.876.876,0,0,0-.067-.143L66.772,5.4a.924.924,0,0,0-.46-.385h0a.671.671,0,0,0-.079-.031l-.021-.007a1.335,1.335,0,0,0-.273-.067c-2.077-.5-4.385-.561-6.1,1.034a4.886,4.886,0,0,0-1.547,2.669,4.478,4.478,0,0,0,.519,3.021,6.194,6.194,0,0,0,2.246,2.175,8.264,8.264,0,0,0,1.394.733,1.945,1.945,0,0,0,2.283-.73,6.87,6.87,0,0,0,.592-1.6q.282-.9.566-1.793c.133-.421.235-.819.327-1.251q.334-1.568.668-3.14c.007-.036,0-.071.009-.105s.007-.061.007-.092" transform="translate(28.782 2.956)" fill="#eddac4"/>
      <path id="Path_14" data-name="Path 14" d="M64.432,13.279a.823.823,0,0,0-.006-.087.874.874,0,0,0-.024-.125A.476.476,0,0,0,64.381,13a.877.877,0,0,0-.067-.143l-.007-.013a.932.932,0,0,0-.46-.385h0a.791.791,0,0,0-.079-.031l-.021,0a1.24,1.24,0,0,0-.273-.069c-2.077-.5-4.385-.561-6.1,1.034a4.886,4.886,0,0,0-1.547,2.669,4.477,4.477,0,0,0,.519,3.021,6.212,6.212,0,0,0,2.246,2.176,8.376,8.376,0,0,0,1.394.731,1.943,1.943,0,0,0,2.283-.73,6.87,6.87,0,0,0,.592-1.6q.282-.9.566-1.793c.133-.421.235-.819.327-1.251q.334-1.568.668-3.14c.007-.036,0-.071.009-.105s.007-.061.007-.092" transform="translate(27.564 7.751)" fill="#eddac4"/>
      <path id="Path_15" data-name="Path 15" d="M93.542,21.77a4.379,4.379,0,0,0-.789-2.9,5.889,5.889,0,0,0-2.5-1.961c-1.106-.519-2.747-1.18-3.579.205a5.049,5.049,0,0,0-.451,1.578q-.211,1.011-.42,2.02c-.1.5-.169.994-.224,1.506q-.168,1.519-.335,3.038a.887.887,0,0,0-.015.138v.01c-.028.258.244.541.412.654a1.379,1.379,0,0,0,.534.2l.048.012.1.013h.009c2.139.283,4.409.026,5.988-1.751a4.939,4.939,0,0,0,1.219-2.758" transform="translate(42.137 10.482)" fill="#eddac4"/>
      <path id="Path_16" data-name="Path 16" d="M87.811,18.582c.016,0,.033.008.048.01l.1.013.007,0c2.14.283,4.41.025,5.99-1.751A4.939,4.939,0,0,0,95.18,14.1a4.387,4.387,0,0,0-.789-2.9,5.9,5.9,0,0,0-2.5-1.961c-1.106-.519-2.748-1.18-3.579.205a5,5,0,0,0-.453,1.578q-.208,1.008-.418,2.018c-.1.5-.169,1-.226,1.507q-.166,1.519-.333,3.036a.77.77,0,0,0-.015.14v.01c-.028.256.244.541.414.654a1.4,1.4,0,0,0,.532.2" transform="translate(42.946 5.543)" fill="#eddac4"/>
      <path id="Path_17" data-name="Path 17" d="M87.1,11.883Q82.424,36.1,77.482,60.249,72,87.276,66.384,114.275q-5.409,26.108-10.866,52.2-4.562,21.86-9.1,43.726c-1.905,9.2-3.83,18.408-5.613,27.644q-.191.989-.377,1.979c-.126.667,1.3,1.326,1.453.528,1.59-8.48,3.367-16.917,5.108-25.359q4.355-21.113,8.778-42.208,5.378-25.77,10.737-51.546,5.624-27.1,11.162-54.218Q82.67,42.456,87.5,17.842q.529-2.715,1.054-5.431c.129-.666-1.3-1.326-1.453-.528" transform="translate(19.983 7.414)" fill="#fff"/>
      <path id="Path_18" data-name="Path 18" d="M90.067,12.3q-4.68,24.212-9.623,48.365-5.485,27.028-11.1,54.026Q63.937,140.8,58.481,166.9q-4.562,21.86-9.1,43.726c-1.905,9.2-3.83,18.408-5.613,27.644q-.191.989-.377,1.979c-.1.534,1.314,1.162,1.379.809,1.59-8.478,3.367-16.917,5.108-25.359q4.355-21.11,8.778-42.206,5.378-25.77,10.737-51.546,5.624-27.1,11.162-54.22,5.006-24.57,9.839-49.182.529-2.717,1.054-5.433c.1-.533-1.311-1.165-1.379-.809" transform="translate(21.449 7.851)" fill="#fff"/>
      <path id="Path_19" data-name="Path 19" d="M92.663,12.825q-4.68,24.212-9.623,48.365-5.485,27.028-11.1,54.026-5.409,26.108-10.866,52.2-4.562,21.86-9.1,43.726c-1.905,9.2-3.83,18.408-5.613,27.644q-.191.989-.377,1.979c-.093.492,1.326,1.1,1.379.809,1.59-8.478,3.367-16.917,5.108-25.359q4.355-21.11,8.778-42.206,5.378-25.77,10.737-51.546,5.624-27.1,11.162-54.22,5.006-24.57,9.839-49.182.529-2.717,1.054-5.433c.1-.49-1.323-1.1-1.379-.809" transform="translate(22.733 8.207)" fill="#fff"/>
      <path id="Path_20" data-name="Path 20" d="M62.374,20.608a.823.823,0,0,0-.006-.087.873.873,0,0,0-.024-.125.474.474,0,0,0-.021-.066.876.876,0,0,0-.067-.143l-.007-.013a.932.932,0,0,0-.46-.385h0a.79.79,0,0,0-.079-.031l-.021,0a1.24,1.24,0,0,0-.273-.069c-2.077-.5-4.385-.561-6.1,1.034a4.886,4.886,0,0,0-1.547,2.669,4.477,4.477,0,0,0,.519,3.021,6.212,6.212,0,0,0,2.246,2.176,8.376,8.376,0,0,0,1.394.731,1.943,1.943,0,0,0,2.283-.73,6.87,6.87,0,0,0,.592-1.6q.282-.9.566-1.793c.133-.421.235-.819.327-1.251q.334-1.568.668-3.14c.007-.036,0-.071.009-.105s.007-.061.007-.092" transform="translate(26.546 12.469)" fill="#eddac4"/>
      <path id="Path_21" data-name="Path 21" d="M92.535,29.316a4.386,4.386,0,0,0-.788-2.9,5.9,5.9,0,0,0-2.5-1.961c-1.106-.519-2.747-1.18-3.579.205a5.049,5.049,0,0,0-.451,1.578q-.211,1.011-.42,2.02c-.1.5-.169.994-.224,1.506q-.168,1.519-.335,3.038a.887.887,0,0,0-.015.138v.01c-.028.258.244.541.412.656a1.4,1.4,0,0,0,.533.2l.048.012.1.013h.009c2.138.283,4.409.026,5.988-1.751a4.928,4.928,0,0,0,1.219-2.758" transform="translate(41.639 15.339)" fill="#eddac4"/>
    </g>
  </g>
</svg>
