<svg xmlns="http://www.w3.org/2000/svg" xmlns:xlink="http://www.w3.org/1999/xlink" width="188.295" height="267.824" viewBox="0 0 188.295 267.824">
  <defs>
    <clipPath id="clip-path">
      <rect id="Rectangle_18" data-name="Rectangle 18" width="188.295" height="267.824" fill="none"/>
    </clipPath>
  </defs>
  <g id="Group_7" data-name="Group 7" clip-path="url(#clip-path)">
    <path id="Path_28" data-name="Path 28" d="M63.987,183.219c-.545-2.719-1.311-5.371-1.944-8.055-5-21.214-8.793-42.9-13.086-64.37-2.013-10.066-4.076-20.13-6.517-30.032-1.3-5.282-2.072-10.834-3.051-16.228q-.332-1.839-.666-3.678a22.957,22.957,0,0,1-4.424,4.2c-2.961,1.856-6.156,1.531-9.433.729,1.4,7.033,3.008,13.993,4.32,21.061,2.109,11.38,3.95,22.842,5.728,34.319,1.8,11.651,3.53,23.324,5.337,34.977,1.647,10.619,3.171,21.386,5.4,31.828.653,3.065,1.593,5.846,3.654,7.685a8.123,8.123,0,0,0,5.075,2.114A10.221,10.221,0,0,0,59.3,196.9a12.488,12.488,0,0,0,2.76-1.764,7.086,7.086,0,0,0,2-2.1c1.36-2.654.494-7-.072-9.816m-13.56,11.825c-.071-.041-.079-.071,0,0" transform="translate(15.921 70.035)" fill="#f3d383"/>
    <path id="Path_29" data-name="Path 29" d="M50.222,135.088a22.91,22.91,0,0,0,4.424-4.2q-.16-.884-.32-1.764c-2.4-9.657.978-19,4.242-27.5,4.271-11.111,8.733-22.173,9.774-34.738a86.843,86.843,0,0,0-4.222-34.747,62.332,62.332,0,0,0-7.025-14.675A44.688,44.688,0,0,0,46.426,6.436,33.989,33.989,0,0,0,33.943.377a18.337,18.337,0,0,0-11.49,1.409c-7.6,3.448-13.84,11.184-17.39,20.558A74.058,74.058,0,0,0,.1,52.713a108.768,108.768,0,0,0,6.407,30.57c3.932,10.872,11.3,17.79,18.229,25.2,3.472,3.714,7.23,7.025,10.369,11.249a24.9,24.9,0,0,1,3.853,7.2,32.558,32.558,0,0,1,.938,4.209c.282,1.566.584,3.123.892,4.68,3.277.8,6.472,1.127,9.433-.729" transform="translate(0 -0.001)" fill="#5b7ebc"/>
    <path id="Path_30" data-name="Path 30" d="M92.826,68.729c-2.145,6.562-4.014,13.277-6.2,19.826-3.185,9.563-6.6,18.992-10.059,28.389-3.515,9.539-7.1,19.039-10.609,28.58-3.2,8.7-6.553,17.409-9.269,26.391a14.608,14.608,0,0,0-.571,8.038,11.667,11.667,0,0,0,2.728,5.089,11.282,11.282,0,0,0,3.845,2.869,9.539,9.539,0,0,0,2.683.705,4.39,4.39,0,0,0,2.282-.08c2.055-.921,3.23-4.616,3.989-7.014.732-2.312,1.279-4.734,1.935-7.087C78.768,155.855,85,137.792,90.794,119.527c2.715-8.56,5.393-17.157,7.739-25.907,1.25-4.665,2.988-9.148,4.514-13.666l1.109-3.28c-3.315-.11-6.6-.316-8.874-3.157a20.174,20.174,0,0,1-2.455-4.788M57.164,180.314c-.033-.08-.026-.105,0,0" transform="translate(35.71 79.096)" fill="#f3d383"/>
    <path id="Path_31" data-name="Path 31" d="M139.544,55.884a59.684,59.684,0,0,0-3.023-15.374,49.455,49.455,0,0,0-6.359-13.131,21.144,21.144,0,0,0-8.728-7.132c-6.807-2.932-14.417-1.863-20.791,2.271A45.157,45.157,0,0,0,84.624,40.544a92.65,92.65,0,0,0-8.037,26.21c-1.686,10.492.7,20.616,2.559,30.768.933,5.093,2.236,10.1,2.724,15.316a27.7,27.7,0,0,1-.231,7.831,27.949,27.949,0,0,1-1.068,3.648c-.238.7-.469,1.411-.7,2.119a20.175,20.175,0,0,0,2.455,4.788c2.27,2.841,5.559,3.048,8.874,3.157q.214-.639.431-1.278c2.273-8.543,8.511-12.782,14.324-16.5,7.6-4.857,15.316-9.543,21.226-17.719a67.937,67.937,0,0,0,11.306-27.625,66.756,66.756,0,0,0,1.056-15.378" transform="translate(48.665 21.389)" fill="#5b7ebc"/>
  </g>
</svg>
