<svg xmlns="http://www.w3.org/2000/svg" xmlns:xlink="http://www.w3.org/1999/xlink" width="304.824" height="356.819" viewBox="0 0 304.824 356.819">
  <defs>
    <clipPath id="clip-path">
      <rect id="Rectangle_17" data-name="Rectangle 17" width="303.033" height="222.049" fill="none"/>
    </clipPath>
  </defs>
  <g id="Group_6" data-name="Group 6" transform="matrix(0.309, -0.951, 0.951, 0.309, 0, 288.202)">
    <g id="Group_5" data-name="Group 5" clip-path="url(#clip-path)">
      <path id="Path_22" data-name="Path 22" d="M115.866,49.414Q109.634,57.7,103.4,66q-6.192,8.24-12.385,16.479-3.508,4.669-7.02,9.34a6.439,6.439,0,0,1-2.282,1.762,8.162,8.162,0,0,1-3.108.956c-.4.027-1.6.2-2.113-.41a1.124,1.124,0,0,1,.119-1.536q6.232-8.29,12.462-16.583,6.194-8.24,12.385-16.479,3.508-4.669,7.02-9.34a6.439,6.439,0,0,1,2.282-1.762,8.191,8.191,0,0,1,3.108-.956c.4-.027,1.6-.2,2.113.41a1.124,1.124,0,0,1-.119,1.536" transform="translate(51.213 31.861)" fill="#f3d383"/>
      <path id="Path_23" data-name="Path 23" d="M120.107,76.143l-6.878,8.973q-3.416,4.459-6.834,8.916l-3.874,5.054a2.485,2.485,0,0,1-1.536.746,6.005,6.005,0,0,1-2.406,0,3.855,3.855,0,0,1-1.866-.747c-.605-.578-.356-.9-.232-1.057l6.876-8.973q3.418-4.456,6.834-8.916,1.938-2.525,3.874-5.054a2.5,2.5,0,0,1,1.536-.746,6.037,6.037,0,0,1,2.406,0,3.86,3.86,0,0,1,1.867.747c.605.578.354.9.232,1.057" transform="translate(64.711 49.859)" fill="#f3d383"/>
      <path id="Path_24" data-name="Path 24" d="M131.54,84.533l-6.878,8.973q-3.415,4.459-6.834,8.916l-3.874,5.054a2.485,2.485,0,0,1-1.536.746,6,6,0,0,1-2.406,0,3.855,3.855,0,0,1-1.866-.747c-.605-.578-.356-.9-.232-1.057q3.438-4.486,6.878-8.973,3.416-4.456,6.833-8.916Q123.563,86,125.5,83.473a2.489,2.489,0,0,1,1.535-.746,6.037,6.037,0,0,1,2.406,0,3.86,3.86,0,0,1,1.867.747c.605.578.354.9.232,1.057" transform="translate(72.392 55.496)" fill="#f3d383"/>
      <path id="Path_25" data-name="Path 25" d="M176.812,96.6q-5.524,7.3-11.047,14.612l-10.979,14.52-6.224,8.23c-.493.652-1.911,2.717-2.782,3.054-.836.321-1.274-.97-2.481-1.023a3.317,3.317,0,0,1-2.225-.625.994.994,0,0,1-.043-1.466l11.049-14.612q5.487-7.26,10.977-14.52l6.224-8.23a4.844,4.844,0,0,1,2.162-1.448,7.619,7.619,0,0,1,3.1-.583,3.317,3.317,0,0,1,2.225.625.993.993,0,0,1,.043,1.466" transform="translate(94.54 63.487)" fill="#f3d383"/>
      <path id="Path_26" data-name="Path 26" d="M90.461,26.06q9.311-10.377,19.313-20.105c3.178-3.089,8.207-8.394,11.953-4.686a5.448,5.448,0,0,1,1.582,3.16c.495,3.7-1.485,8.921-3.188,11.973-3.3,5.906-8.423,14.794-3.471,19.209a131.064,131.064,0,0,0,17.288,14.762C145.27,58.688,288.44,168.3,288.44,168.3s26.792,21.249,7.774,42.086c-9.347,10.24-19.528,12.605-28.576,11.368a43.323,43.323,0,0,1-19.416-7.874L13.08,44.3S-11.186,28.562,6.386,8.317c15.75-18.147,62.97,25.742,62.97,25.742L228.292,155.233s6.274,3.847,10.907,2.7-2.369,7.358-2.369,7.358l-3.914,4.933c-.55.634-1.115.517-1.374-.283-.5-1.56-.7-4.766-4.4-7.973C221.521,157.1,40.777,24.456,40.777,24.456S19.715,8.566,13.531,15.36C6.378,23.223,5.323,27.566,41.414,53.2,72.3,75.134,242.117,199.82,249.191,204.184c9.673,5.967,22.645,12.564,35.492,2.284s4.377-25.59-8.2-36.337S116.1,50.926,116.1,50.926s-10.253-7.939-19.087-1.877C85.466,56.97,76.2,60.785,70.654,55.955s19.808-29.9,19.808-29.9" transform="translate(0 0)" fill="#78a69d"/>
      <path id="Path_27" data-name="Path 27" d="M151.46,101.038l1.393-.829a5.444,5.444,0,0,1,1.921-.647,9.521,9.521,0,0,1,6.249,1.062,20.612,20.612,0,0,1,2.815,1.668,8.625,8.625,0,0,1,2.172,2.543,13.714,13.714,0,0,1,1.363,2.939,5.283,5.283,0,0,1-.159,2.8,9.821,9.821,0,0,1-8.127,6.981c-3.917.528-7.587-1.737-9.606-5.007a9.68,9.68,0,0,1-1.538-6.054,7.6,7.6,0,0,1,3.517-5.46" transform="translate(99.356 66.792)" fill="#f3d383"/>
    </g>
  </g>
</svg>
