<svg id="Group_2" data-name="Group 2" xmlns="http://www.w3.org/2000/svg" xmlns:xlink="http://www.w3.org/1999/xlink" width="331.988" height="251.939" viewBox="0 0 331.988 251.939">
  <defs>
    <clipPath id="clip-path">
      <rect id="Rectangle_15" data-name="Rectangle 15" width="331.988" height="251.939" fill="none"/>
    </clipPath>
  </defs>
  <g id="Group_1" data-name="Group 1" clip-path="url(#clip-path)">
    <path id="Path_4" data-name="Path 4" d="M22.562,229.032c9.412-4.551,16-7.14,24.337-10.949,15.835,47.987,52.2,30.9,52.2,30.9,20.441-6.543,37.713-14.4,57.235-23.5q22.743-10.692,45.487-21.382c9.854-4.736,19.868-9.171,29.523-14.275,16.5-8.721,32.378-18.279,44.045-33.082,11.893-15.091,5.635-35.141-12.541-40.166a54.341,54.341,0,0,0-21.529-1.278,70.128,70.128,0,0,0-21.019,6.311c-30.422,14.415-62.05,31-97.213,46.243-17.752,10.32-37.189,15.929-56.769,25.159,3.637-12.637,13.336-18.106,22.088-23.42,26.872-16.317,55.126-30.2,83.73-43.276,24.772-11.324,48.641-24.787,75.288-31.746,11.871-3.1,22.269-2.963,33.77,2.7,0,0,28.379,10.916,45.169,13.357,3.093.449,6.07.267,5.576-6.082-.3-3.878-2.171-7.308-3.62-11.139-11.2-29.593-25.833-60.9-42.255-88.276-1.793-2.991-3.9-5.261-7.835-5.123-4.179.148-6.222,2.918-7.434,6.3-3.407,9.5-6.955,23.539-9.852,33.281-2.567,8.63-6.8,25.741-15.454,31.208C223.053,84.969,196.2,96.944,172.09,108.371c-30.222,14.322-58.355,27.807-88.562,42.153-24,11.4-45.276,26.02-40.676,51.319.1.555.208,1.086.314,1.629L16.571,216.217l-.391.143-2.4,1.327a1.34,1.34,0,0,1-1.509-.232,13.966,13.966,0,0,1-3.031-4.467,1.608,1.608,0,0,0-.714-.952,1.8,1.8,0,0,0-1.088.017,40.5,40.5,0,0,0-6.361,2.008,1.894,1.894,0,0,0-.934.636,1.573,1.573,0,0,0,.035,1.353C3.635,226.088,5.633,233,12.155,241.418a1.547,1.547,0,0,0,.842.662,1.922,1.922,0,0,0,1.222-.328l5.291-2.731a1.282,1.282,0,0,0,.655-1.565l-.506-2.024c-.314-.814-1.042-3.211-.807-4.083.173-.643.981-1.023,3.035-1.973Zm57.63,4.661a4.529,4.529,0,0,0-.554-.5c-1.847-1.322-12.007-9.127-11.707-20.811a4.025,4.025,0,0,1,2.57-3.5L156.18,168.6c31.442-13.952,61.964-38.844,95.839-37.175,3.884.19,7.531,4,8.865,7.523,1.49,3.929.609,6.978-1.893,9.854-7.025,8.078-16.252,14.16-25.512,19.835-45.613,27.953-142.693,75.534-153.287,65.058" transform="translate(0 0)" fill="#f2dac2"/>
    <path id="Path_5" data-name="Path 5" d="M96.012,62.615l52.72,104.765c1.25,2.485-2.527,5.368-5.064,3.861a15.265,15.265,0,0,1-5.286-5.862q-25.266-47.857-50.535-95.711c-1.242-2.35-2.462-5.158-.866-7.776s5.955-4.009,8.151-.99Z" transform="translate(64.337 44.169)" fill="#c15325"/>
    <path id="Path_6" data-name="Path 6" d="M124.9,175.34,72.183,70.575c-1.25-2.485,2.527-5.368,5.066-3.861a15.278,15.278,0,0,1,5.286,5.862q25.263,47.857,50.533,95.711c1.242,2.35,2.462,5.158.866,7.776s-5.955,4.009-8.151.99Z" transform="translate(53.679 49.471)" fill="#c15325"/>
    <path id="Path_7" data-name="Path 7" d="M109.228,182.336,57.06,78.742c-1.236-2.455,3.744-5.893,6.269-4.411,2.242,1.317,2.906,4.187,4.051,6.351Q92.392,128,117.407,175.312c1.229,2.324,2.434,5.1.831,7.7s-5.96,4-8.139,1.016Z" transform="translate(42.434 55.199)" fill="#c15325"/>
    <path id="Path_8" data-name="Path 8" d="M92.425,55.521a11.214,11.214,0,0,0-3.155-4.407,5.522,5.522,0,0,0-5.874-.286,4.556,4.556,0,0,0-2.054,4.912,6.982,6.982,0,0,0,3.381,3.878A6.651,6.651,0,0,0,88.6,60.776c1.462-.091,3.086-1.037,3.428-2.326a2.88,2.88,0,0,0,.4-2.928" transform="translate(60.6 37.394)" fill="#c15325"/>
    <path id="Path_9" data-name="Path 9" d="M77.384,64.732c.871-3.045.581-6.6-3.119-7.524a6.383,6.383,0,0,0-5.995,1.617,4.384,4.384,0,0,0-.686.873,4.037,4.037,0,0,0,.255,4.173,8.249,8.249,0,0,0,2.328,2.251,3.552,3.552,0,0,0,2.125.629c1.682-.045,4.619-.363,5.092-2.019" transform="translate(50.082 42.549)" fill="#c15325"/>
    <path id="Path_10" data-name="Path 10" d="M62.581,73.035c.871-3.045.581-6.6-3.119-7.524a6.383,6.383,0,0,0-5.995,1.617,4.384,4.384,0,0,0-.686.873,4.037,4.037,0,0,0,.255,4.173,9.322,9.322,0,0,0,2.144,2.7,4.333,4.333,0,0,0,2.336.751c1.682-.045,4.591-.939,5.064-2.595" transform="translate(39.035 48.745)" fill="#c15325"/>
  </g>
</svg>
