<svg xmlns="http://www.w3.org/2000/svg" xmlns:xlink="http://www.w3.org/1999/xlink" width="418.969" height="448.406" viewBox="0 0 418.969 448.406">
  <defs>
    <clipPath id="clip-path">
      <rect id="Rectangle_21" data-name="Rectangle 21" width="366.948" height="257.858" fill="none"/>
    </clipPath>
  </defs>
  <g id="Group_14" data-name="Group 14" transform="translate(418.969 144.193) rotate(124)">
    <g id="Group_13" data-name="Group 13" transform="translate(0 0)" clip-path="url(#clip-path)">
      <path id="Path_58" data-name="Path 58" d="M139.026,101.9a.957.957,0,0,0,.9,1.459c2.752-.164,5.54.931,8.1,2.01l11.384,4.808a1.019,1.019,0,0,0,1.214-1.559,8.727,8.727,0,0,0-1.735-1.4c-5.272-3.379-10.557-7.06-14.12-12.1a1.027,1.027,0,0,0-1.707.093Z" transform="translate(182.797 124.667)" fill="#eddac4"/>
      <path id="Path_59" data-name="Path 59" d="M246.779,239.349c20.216,6.476,39.394,4.218,57.361-8.429,20.962-14.754,31.079-34.475,30.632-59.263-.41-22.806-6.963-42.042-29.3-52.634-2.272-1.077-4.3-2.629-6.571-3.7-10.49-4.936-21.256-9.047-33.321-9.117-10.4-.058-17.969,5.774-11.658,13.49,4.158,5.084-3.778,4.415-6.722,4.306-12.491-.466-19.591-5.48-28.5-13.362-2.9-2.564-2.082-5.049,2.115-6.335,10.754-3.3,12.887-9.508,4.769-16.244C200.448,67.2,166.823,56.543,133.7,79.1c-2.451,1.668-4.371,1.918-6.97.428C100.412,64.448,73.755,49.923,46.572,36.313a86.075,86.075,0,0,1-10.543-6.458L36,29.622c-2.293-1.255-1.682-4.3-1.538-7.407.118-2.594-1.772-4.1-4.019-5.045-2.316-.975-4.739-1.73-7.034-2.747-1.661-.734-3.361-1.858-5.086-2.58a6.451,6.451,0,0,0-7.813,2.64L.9,29.767a5.429,5.429,0,0,0,.882,7.039c1.55,1.336,3.674,2.349,5.32,3.548,2.01,1.468,3.838,3.166,5.823,4.672,1.925,1.459,4.2,2.356,6.534,1.042,2.8-1.575,5.327-3.516,7.558-2.161C40.946,52.369,54.88,60.272,68.571,69.155,83.437,78.8,98.131,86.974,114.8,98.381c2.525,1.728,2.08,5.054,2.119,8.278.167,13.779,1.668,27.3,7.905,39.888,7.852,15.838,21.358,25.4,36.724,33.275,9.434,4.839,28.063,3.743,21.448-8-4.373-7.762,3.016-4.408,6.145-2.958,8.8,4.079,15.831,10.045,20.466,18.511,1.749,3.2,6.951,8.422-1.735,8.41-9.4-.014-7.375,9.749-.593,16.082,0,0,22.671,24.126,39.5,27.482" transform="translate(0.001 14.989)" fill="#f3d383"/>
      <path id="Path_60" data-name="Path 60" d="M99.5,81.626c-1.135-1.614-3.3-3.273-5.295-1.64-1.855,1.517-2.587,4.475-2.474,6.7a10.6,10.6,0,0,0,2.022,5.679,17,17,0,0,0,5.413,4.477c2.115,1.239,4.3,2.349,6.367,3.664a42.84,42.84,0,0,1,5.8,4.389,27.814,27.814,0,0,1,4.549,5.181,9.725,9.725,0,0,1,1.916,5.207,5.239,5.239,0,0,1-1,2.712,5.392,5.392,0,0,1-2.562,2.492,3.507,3.507,0,0,1-4.785-2.8c-.067-.774-.792-.859-1.292-.343a3.335,3.335,0,0,0-.8,2.562,4.8,4.8,0,0,0,3.7,4.366c2.418.479,4.456-.913,5.879-2.768a13.564,13.564,0,0,0,2.993-7.169,11.162,11.162,0,0,0-1.482-6.031c-2.235-4.1-5.872-7.41-9.7-10.066a69.925,69.925,0,0,0-6.3-3.8,24.64,24.64,0,0,1-6.212-4.341,7.77,7.77,0,0,1-2.358-5.58,2.646,2.646,0,0,1,.195-.841,1.014,1.014,0,0,1,.975-.695c1.33-.1,2.226,1.089,2.881,2.02.472.674,1.357-.632,1.517-.968a2.464,2.464,0,0,0,.058-2.4" transform="translate(120.723 104.395)" fill="#fff"/>
      <path id="Path_61" data-name="Path 61" d="M106.954,71.014c-1.054-.107-2.344-.255-3-1.153a2.587,2.587,0,0,1-.2-.4c.127-.042-.338.679-.09.6.058-.019.134-.185.171-.229a4.935,4.935,0,0,1,.936-.848,8.7,8.7,0,0,1,5.672-1.348c4.934.433,8.957,3.942,13.131,6.122a36.547,36.547,0,0,0,13.856,4.361,13.847,13.847,0,0,0,6.194-.693,10.831,10.831,0,0,0,5.163-4.72c1.45-2.372,2.62-5.5,1.174-8.049a4.746,4.746,0,0,0-5.985-2.027,2.613,2.613,0,0,0-1.334,2.059c-.058.359-.069,1.888.73,1.563a3.668,3.668,0,0,1,4.938,1.8,2.212,2.212,0,0,1-.3,2.015,9.5,9.5,0,0,1-2.05,2.7c-3.321,2.823-8.753,1.818-12.466.852a50.638,50.638,0,0,1-13.284-6.066c-3.8-2.288-8.153-4.584-12.85-3.148a8.3,8.3,0,0,0-5.4,4.769,4.057,4.057,0,0,0,.415,4.051,4.895,4.895,0,0,0,3.442,1.413c1.385.141,2.349-3.5,1.13-3.623" transform="translate(133.757 81.947)" fill="#fff"/>
      <path id="Path_62" data-name="Path 62" d="M158.524,94.348c-1.98-.683-4-1.272-6.006-1.9q-6.209-1.956-12.42-3.914c-1.962-.618-3.919-1.258-5.89-1.853a12.245,12.245,0,0,0-5.23-.676,6.019,6.019,0,0,0-5.117,6.912,7.367,7.367,0,0,0,2.145,3.926c1.378,1.383,2.928,2.629,4.419,3.894,2.923,2.474,5.927,4.855,8.915,7.252,1.668,1.336,3.328,2.678,4.971,4.044q1.345,1.115,2.666,2.251a30.712,30.712,0,0,1,2.731,2.4,3.335,3.335,0,0,0,1.232,1.042c1.151.431,2-.662,2.534-1.547.028-.042.053-.086.076-.127,1.825-3.277,4.088-6.293,6.022-9.508a31.879,31.879,0,0,0,2.624-5.1,5.417,5.417,0,0,0,.079-4.6,6.633,6.633,0,0,0-3.752-2.488" transform="translate(162.929 113.1)" fill="#fff"/>
      <path id="Path_63" data-name="Path 63" d="M12.529,24.471c35.505,21.675,71.259,42.978,107.061,64.2,36.008,21.344,72.069,42.609,108,64.083q29.9,17.872,59.638,35.99c.493.3,1-1.015.6-1.258-35.505-21.675-71.259-42.978-107.058-64.2-36.01-21.346-72.072-42.609-108-64.083q-29.9-17.872-59.64-35.992c-.493-.3-1,1.017-.6,1.26" transform="translate(16.301 30.493)" fill="#fff"/>
      <path id="Path_64" data-name="Path 64" d="M13.436,23.029C48.791,44.609,84.6,65.488,120.508,86.209c36.029,20.8,72.157,41.433,108.033,62.471q30,17.591,59.7,35.656c.493.3,1-1.017.6-1.26-35.355-21.58-71.166-42.456-107.072-63.18C145.743,99.1,109.615,78.463,73.741,57.427q-30-17.594-59.705-35.658c-.493-.3-1,1.017-.6,1.26" transform="translate(17.495 28.595)" fill="#fff"/>
      <path id="Path_65" data-name="Path 65" d="M14.169,21.864C49.482,43.416,85.434,63.989,121.512,84.34c36.33,20.494,72.8,40.766,108.914,61.6Q260.5,163.293,290.154,181.3c.493.3,1-1.015.6-1.258-35.313-21.555-71.266-42.125-107.343-62.478-36.33-20.492-72.8-40.766-108.911-61.6Q44.422,38.613,14.769,20.6c-.493-.3-1,1.017-.6,1.26" transform="translate(18.46 27.062)" fill="#fff"/>
      <path id="Path_66" data-name="Path 66" d="M12.724,28.819a4.1,4.1,0,0,0,.113,4.892,5.105,5.105,0,0,0,4.572,1.8,3.252,3.252,0,0,0,2.052-1.746,5.381,5.381,0,0,0,.727-2.9,2.2,2.2,0,0,0-.422-1.211,4.46,4.46,0,0,0-1.158-.9,14.5,14.5,0,0,0-3.06-1.459c-1.191-.364-2.233.593-2.826,1.533" transform="translate(15.757 35.81)" fill="#eddac4"/>
      <path id="Path_67" data-name="Path 67" d="M25.407,24.31a5.381,5.381,0,0,0,.727-2.9,2.2,2.2,0,0,0-.422-1.211,4.51,4.51,0,0,0-1.158-.9,14.5,14.5,0,0,0-3.06-1.459c-1.191-.364-2.233.593-2.826,1.533a4.1,4.1,0,0,0,.113,4.892,5.105,5.105,0,0,0,4.572,1.8,3.252,3.252,0,0,0,2.052-1.746" transform="translate(23.581 23.369)" fill="#eddac4"/>
      <path id="Path_68" data-name="Path 68" d="M16.572,31.039a4.1,4.1,0,0,0,.113,4.892,5.105,5.105,0,0,0,4.572,1.8,3.252,3.252,0,0,0,2.052-1.746,5.381,5.381,0,0,0,.727-2.9,2.2,2.2,0,0,0-.422-1.211,4.51,4.51,0,0,0-1.158-.9,14.5,14.5,0,0,0-3.06-1.459c-1.191-.364-2.233.593-2.826,1.533" transform="translate(20.821 38.732)" fill="#eddac4"/>
      <path id="Path_69" data-name="Path 69" d="M22.517,21.587a4.1,4.1,0,0,0,.113,4.892,5.105,5.105,0,0,0,4.572,1.8,3.252,3.252,0,0,0,2.052-1.746,5.381,5.381,0,0,0,.727-2.9,2.2,2.2,0,0,0-.422-1.211,4.46,4.46,0,0,0-1.158-.9,14.5,14.5,0,0,0-3.06-1.459c-1.191-.364-2.233.593-2.826,1.533" transform="translate(28.646 26.291)" fill="#eddac4"/>
      <path id="Path_70" data-name="Path 70" d="M21.926,2.709,140.859,48.081c39.385,15.028,78.9,29.81,117.924,45.657,21.937,8.908,43.675,18.273,64.947,28.531.317.153.834-1.163.424-1.36-37.815-18.236-77.056-33.6-116.346-48.724q-59.2-22.792-118.533-45.3Q55.813,14.115,22.349,1.352c-.354-.137-.834,1.2-.424,1.357" transform="translate(28.652 1.766)" fill="#fff"/>
      <path id="Path_71" data-name="Path 71" d="M342.115,125.81q-1.942-1-3.942-1.883a69.032,69.032,0,0,0-8.088-2.953.7.7,0,0,0-.831.368l-1.341,3.653q-9.273-3.877-18.546-7.759-20.346-8.516-40.687-17.052-18.5-7.765-36.985-15.584c-3.136-1.332-6.284-2.647-9.4-4.035-.69-.308-.688-.329-1.146-.533-.477-.213-.966-.4-1.45-.593-6.423-2.55-12.89-4.98-19.343-7.44q-17.476-6.664-34.968-13.286Q144.2,50.681,123,42.669q-21.041-7.956-42.09-15.906-16.75-6.323-33.5-12.644-8.568-3.235-17.135-6.465l-.167-.063q.167-2.338.331-4.676c.016-.241-.183-.755-.551-.822Q24.28,1.054,18.675.018a.731.731,0,0,0-.908.574c-.887,4.526,1.883,9.471,7.493,11.491Q59.965,23.99,94.487,36.591T163.3,62.51q34.139,13.251,68.041,27.211,34.052,14.022,67.835,28.765,8.443,3.686,16.871,7.419,4.134,1.831,8.267,3.674a71.464,71.464,0,0,0,7.62,3.143c4,1.246,8.278,1.237,10.634-1.427a4.545,4.545,0,0,0,1.137-3.824c-.171-.98-.574-1.135-1.6-1.661" transform="translate(23.17 0.001)" fill="#f3d383"/>
    </g>
  </g>
</svg>
