<svg xmlns="http://www.w3.org/2000/svg" xmlns:xlink="http://www.w3.org/1999/xlink" width="374.907" height="276.1" viewBox="0 0 374.907 276.1">
  <defs>
    <clipPath id="clip-path">
      <rect id="Rectangle_21" data-name="Rectangle 21" width="358.22" height="251.725" fill="none"/>
    </clipPath>
  </defs>
  <g id="Group_14" data-name="Group 14" transform="translate(17.559) rotate(4)">
    <g id="Group_13" data-name="Group 13" transform="translate(0 0)" clip-path="url(#clip-path)">
      <path id="Path_58" data-name="Path 58" d="M139.023,101.733a.934.934,0,0,0,.877,1.425c2.686-.161,5.409.909,7.907,1.963l11.113,4.694a1,1,0,0,0,1.185-1.522,8.518,8.518,0,0,0-1.694-1.363c-5.146-3.3-10.306-6.892-13.784-11.81a1,1,0,0,0-1.666.09Z" transform="translate(175.146 119.449)" fill="#eddac4"/>
      <path id="Path_59" data-name="Path 59" d="M240.91,233.927c19.735,6.322,38.457,4.117,56-8.228,20.463-14.4,30.34-33.655,29.9-57.853-.4-22.263-6.8-41.042-28.6-51.382-2.218-1.051-4.194-2.566-6.415-3.611-10.241-4.818-20.75-8.832-32.529-8.9-10.148-.057-17.542,5.637-11.38,13.169,4.059,4.963-3.688,4.31-6.562,4.2-12.194-.454-19.125-5.35-27.821-13.044-2.826-2.5-2.033-4.929,2.064-6.184,10.5-3.218,12.581-9.282,4.656-15.857-24.542-20.362-57.367-30.77-89.7-8.746-2.392,1.628-4.267,1.872-6.8.418C98.024,63.186,72,49.007,45.464,35.72a84.028,84.028,0,0,1-10.293-6.3l-.025-.228c-2.239-1.226-1.642-4.2-1.5-7.231.115-2.532-1.73-4-3.923-4.925-2.261-.952-4.626-1.689-6.867-2.682-1.621-.717-3.281-1.813-4.965-2.519a6.3,6.3,0,0,0-7.627,2.578L.879,29.33A5.3,5.3,0,0,0,1.741,36.2c1.513,1.3,3.586,2.293,5.194,3.464,1.963,1.434,3.747,3.091,5.684,4.561,1.879,1.425,4.1,2.3,6.379,1.018,2.736-1.538,5.2-3.432,7.378-2.11,13.6,8.26,27.2,15.975,40.565,24.646C81.452,77.2,95.8,85.176,112.07,96.312c2.465,1.687,2.031,4.934,2.069,8.081.163,13.452,1.628,26.654,7.717,38.939,7.665,15.462,20.85,24.791,35.85,32.483,9.21,4.723,27.4,3.654,20.938-7.81-4.269-7.577,2.944-4.3,6-2.887,8.592,3.982,15.455,9.807,19.979,18.071,1.707,3.12,6.786,8.222-1.694,8.21-9.178-.014-7.2,9.517-.579,15.7,0,0,22.132,23.552,38.559,26.828" transform="translate(0.001 14.362)" fill="#f3d383"/>
      <path id="Path_60" data-name="Path 60" d="M99.314,81.571c-1.108-1.576-3.22-3.195-5.169-1.6-1.811,1.481-2.526,4.369-2.415,6.537A10.346,10.346,0,0,0,93.7,92.051a16.6,16.6,0,0,0,5.284,4.371c2.064,1.21,4.2,2.293,6.216,3.577a41.819,41.819,0,0,1,5.666,4.285,27.151,27.151,0,0,1,4.441,5.058,9.493,9.493,0,0,1,1.87,5.083,5.115,5.115,0,0,1-.977,2.648,5.264,5.264,0,0,1-2.5,2.433,3.424,3.424,0,0,1-4.672-2.738c-.066-.755-.773-.839-1.262-.335a3.256,3.256,0,0,0-.78,2.5A4.682,4.682,0,0,0,110.6,123.2c2.361.468,4.35-.891,5.739-2.7a13.242,13.242,0,0,0,2.921-7,10.9,10.9,0,0,0-1.447-5.888,30.01,30.01,0,0,0-9.47-9.827,68.256,68.256,0,0,0-6.155-3.713,24.054,24.054,0,0,1-6.064-4.237,7.585,7.585,0,0,1-2.3-5.447,2.582,2.582,0,0,1,.19-.821.99.99,0,0,1,.952-.678c1.3-.1,2.173,1.063,2.813,1.972.461.658,1.325-.617,1.481-.945a2.4,2.4,0,0,0,.057-2.34" transform="translate(115.67 100.026)" fill="#fff"/>
      <path id="Path_61" data-name="Path 61" d="M106.827,70.806c-1.029-.1-2.288-.249-2.926-1.126a2.526,2.526,0,0,1-.2-.391c.124-.041-.33.663-.088.588.057-.018.131-.181.167-.224a4.818,4.818,0,0,1,.913-.828,8.5,8.5,0,0,1,5.538-1.316c4.816.423,8.744,3.848,12.818,5.976a35.678,35.678,0,0,0,13.526,4.258,13.517,13.517,0,0,0,6.046-.676,10.573,10.573,0,0,0,5.04-4.608c1.415-2.315,2.557-5.372,1.146-7.857a4.633,4.633,0,0,0-5.843-1.978,2.551,2.551,0,0,0-1.3,2.01c-.057.35-.068,1.843.712,1.526a3.58,3.58,0,0,1,4.821,1.755,2.159,2.159,0,0,1-.289,1.967,9.273,9.273,0,0,1-2,2.634c-3.243,2.756-8.545,1.775-12.169.832a49.433,49.433,0,0,1-12.968-5.922c-3.706-2.234-7.959-4.475-12.545-3.073a8.1,8.1,0,0,0-5.268,4.656,3.96,3.96,0,0,0,.4,3.955,4.778,4.778,0,0,0,3.36,1.379c1.352.138,2.293-3.417,1.1-3.536" transform="translate(128.159 78.517)" fill="#fff"/>
      <path id="Path_62" data-name="Path 62" d="M157.7,94.148c-1.933-.667-3.91-1.241-5.863-1.856q-6.061-1.91-12.124-3.821c-1.915-.6-3.826-1.228-5.75-1.809a11.954,11.954,0,0,0-5.106-.66,5.876,5.876,0,0,0-4.995,6.747,7.192,7.192,0,0,0,2.094,3.833c1.345,1.35,2.858,2.566,4.314,3.8,2.854,2.415,5.786,4.739,8.7,7.08,1.628,1.3,3.249,2.614,4.852,3.948q1.313,1.089,2.6,2.2a29.98,29.98,0,0,1,2.666,2.343,3.256,3.256,0,0,0,1.2,1.017c1.124.421,1.956-.647,2.474-1.51.027-.041.052-.084.075-.124,1.782-3.2,3.991-6.144,5.879-9.282a31.117,31.117,0,0,0,2.562-4.979,5.288,5.288,0,0,0,.077-4.5,6.475,6.475,0,0,0-3.663-2.428" transform="translate(156.11 108.366)" fill="#fff"/>
      <path id="Path_63" data-name="Path 63" d="M12.525,24.44C47.186,45.6,82.089,66.4,117.039,87.114c35.152,20.836,70.355,41.6,105.428,62.559q29.189,17.447,58.22,35.134c.482.294.975-.99.586-1.228-34.661-21.16-69.564-41.955-104.512-62.674-35.154-20.839-70.358-41.6-105.428-62.559Q42.14,40.9,13.111,23.21c-.482-.292-.975.993-.586,1.23" transform="translate(15.619 29.217)" fill="#fff"/>
      <path id="Path_64" data-name="Path 64" d="M13.432,23C47.946,44.065,82.906,64.447,117.958,84.675c35.172,20.3,70.441,40.447,105.464,60.985q29.291,17.172,58.283,34.808c.482.294.975-.993.586-1.23-34.514-21.067-69.473-41.447-104.525-61.677C142.593,97.26,107.324,77.114,72.3,56.578Q43.012,39.4,14.018,21.768c-.482-.292-.975.993-.586,1.23" transform="translate(16.763 27.398)" fill="#fff"/>
      <path id="Path_65" data-name="Path 65" d="M14.165,21.833c34.473,21.04,69.571,41.123,104.79,60.99,35.466,20.007,71.065,39.8,106.323,60.137q29.359,16.938,58.308,34.516c.482.294.974-.99.586-1.228-34.473-21.042-69.57-41.123-104.79-60.992-35.466-20-71.065-39.8-106.321-60.135Q43.7,38.183,14.751,20.6c-.482-.292-.975.993-.586,1.23" transform="translate(17.687 25.929)" fill="#fff"/>
      <path id="Path_66" data-name="Path 66" d="M12.706,28.781a4,4,0,0,0,.111,4.776,4.984,4.984,0,0,0,4.463,1.755,3.175,3.175,0,0,0,2-1.7,5.253,5.253,0,0,0,.71-2.833,2.152,2.152,0,0,0-.412-1.183,4.354,4.354,0,0,0-1.131-.882,14.159,14.159,0,0,0-2.987-1.425c-1.162-.355-2.18.579-2.759,1.5" transform="translate(15.097 34.312)" fill="#eddac4"/>
      <path id="Path_67" data-name="Path 67" d="M25.229,24.154a5.253,5.253,0,0,0,.71-2.833,2.152,2.152,0,0,0-.412-1.183,4.4,4.4,0,0,0-1.131-.882,14.16,14.16,0,0,0-2.987-1.425c-1.162-.355-2.18.579-2.759,1.5a4,4,0,0,0,.111,4.776,4.984,4.984,0,0,0,4.463,1.755,3.175,3.175,0,0,0,2-1.7" transform="translate(22.594 22.391)" fill="#eddac4"/>
      <path id="Path_68" data-name="Path 68" d="M16.554,31a4,4,0,0,0,.111,4.776,4.984,4.984,0,0,0,4.463,1.755,3.175,3.175,0,0,0,2-1.7,5.253,5.253,0,0,0,.71-2.833,2.152,2.152,0,0,0-.412-1.183,4.4,4.4,0,0,0-1.131-.882A14.159,14.159,0,0,0,19.312,29.5c-1.162-.355-2.18.579-2.759,1.5" transform="translate(19.95 37.111)" fill="#eddac4"/>
      <path id="Path_69" data-name="Path 69" d="M22.5,21.549a4,4,0,0,0,.111,4.776,4.984,4.984,0,0,0,4.463,1.755,3.175,3.175,0,0,0,2-1.7,5.253,5.253,0,0,0,.71-2.833,2.152,2.152,0,0,0-.412-1.183,4.354,4.354,0,0,0-1.131-.882,14.159,14.159,0,0,0-2.987-1.425c-1.162-.355-2.18.579-2.759,1.5" transform="translate(27.447 25.191)" fill="#eddac4"/>
      <path id="Path_70" data-name="Path 70" d="M21.922,2.676l116.1,44.293c38.448,14.67,77.023,29.1,115.119,44.571,21.415,8.7,42.636,17.838,63.4,27.853.31.149.814-1.135.414-1.327-36.915-17.8-75.223-32.8-113.579-47.565Q145.588,48.252,87.669,26.276,55,13.811,22.336,1.351c-.346-.133-.814,1.171-.414,1.325" transform="translate(27.452 1.692)" fill="#fff"/>
      <path id="Path_71" data-name="Path 71" d="M334.4,122.817q-1.9-.977-3.848-1.838a67.393,67.393,0,0,0-7.9-2.883.681.681,0,0,0-.812.36l-1.309,3.566q-9.052-3.785-18.1-7.575-19.862-8.313-39.719-16.646Q244.646,90.22,226.6,82.587c-3.062-1.3-6.134-2.584-9.176-3.939-.674-.3-.672-.321-1.119-.52-.466-.208-.943-.391-1.415-.579-6.27-2.49-12.583-4.861-18.883-7.263q-17.06-6.505-34.136-12.97-20.686-7.842-41.379-15.663Q99.953,33.887,79.4,26.127,63.052,19.954,46.7,13.783q-8.364-3.158-16.728-6.311l-.163-.061q.163-2.283.323-4.565c.016-.235-.179-.737-.538-.8Q24.121,1.029,18.649.017a.713.713,0,0,0-.886.561C16.9,5,19.6,9.824,25.077,11.8q33.88,11.623,67.581,23.925t67.181,25.3q33.327,12.936,66.423,26.564,33.242,13.689,66.222,28.081,8.242,3.6,16.47,7.242,4.036,1.787,8.07,3.586a69.762,69.762,0,0,0,7.439,3.068c3.9,1.216,8.081,1.207,10.381-1.393a4.437,4.437,0,0,0,1.11-3.733c-.167-.956-.561-1.108-1.558-1.621" transform="translate(22.201 0.001)" fill="#f3d383"/>
    </g>
  </g>
</svg>
